# xmcd CD database file
# Copyright (C) 1997 Ti Kan
# 
# Track frame offsets:
#     182
#     15255
#     29767
#     42760
#     53335
#     65482
#     84287
#     96580
#     106065
#     133512
#     151922
#     167372
# 
# Disc length: 2441 seconds
# 
# Revision: 1
# Processed by: cddbd v1.4b41PL1 Copyright (c) Steve Scherf et al.
# Submitted via: DiscPlay 4.0.4
# 
DISCID=8409870c
DTITLE=The Osmonds - Gonna Be A Heartache Tonight
DYEAR=1900
DGENRE=
TTITLE0=Takin' Country To The City
TTITLE1=Yes Ma'am
TTITLE2=Where Does An Angel Go
TTITLE3=Gonna Be A Heartache Tonight
TTITLE4=Who Do You Know In California
TTITLE5=If Every Man Had A Woman Like You
TTITLE6=You're The Best
TTITLE7=It's Who You Love
TTITLE8=American Trilogy
TTITLE9=He Ain't Heavy, He's My Brother
TTITLE10=Stuck On You
TTITLE11=You're Getting To Me Again
EXTD=
EXTT0=
EXTT1=
EXTT2=
EXTT3=
EXTT4=
EXTT5=
EXTT6=
EXTT7=
EXTT8=
EXTT9=
EXTT10=
EXTT11=
PLAYORDER=
